<svg width="40" height="40" viewBox="0 0 40 40" fill="none" xmlns="http://www.w3.org/2000/svg">
<path d="M20 40C31.0457 40 40 31.0457 40 20C40 8.9543 31.0457 0 20 0C8.9543 0 0 8.9543 0 20C0 31.0457 8.9543 40 20 40Z" fill="#F1B32B"/>
<path d="M19.6875 5C11.575 5 5 11.575 5 19.6875C5 27.8 11.575 34.375 19.6875 34.375C27.8 34.375 34.375 27.8 34.375 19.6875C34.375 15.7921 32.8276 12.0563 30.0731 9.30187C27.3187 6.54743 23.5829 5 19.6875 5ZM19.6875 30.7125C16.7635 30.7125 13.9592 29.5509 11.8916 27.4834C9.82406 25.4158 8.6625 22.6115 8.6625 19.6875C8.6625 16.7635 9.82406 13.9592 11.8916 11.8916C13.9592 9.82406 16.7635 8.6625 19.6875 8.6625C22.6115 8.6625 25.4158 9.82406 27.4834 11.8916C29.5509 13.9592 30.7125 16.7635 30.7125 19.6875C30.7125 22.6115 29.5509 25.4158 27.4834 27.4834C25.4158 29.5509 22.6115 30.7125 19.6875 30.7125ZM16.025 19.7L19.7 25.2L23.35 19.7L19.7 14.1875L16.025 19.7Z" fill="white"/>
</svg>
